<mxfile host="app.diagrams.net" modified="2021-09-06T16:04:08.486Z" agent="5.0 (Windows NT 10.0; Win64; x64) AppleWebKit/537.36 (KHTML, like Gecko) Chrome/93.0.4577.63 Safari/537.36 Edg/93.0.961.38" etag="dZEUAdXWL3jmmqTm-WI0" version="15.0.6" type="github">
  <diagram id="0m3XK42-vpMVH0bRoTD8" name="Page-1">
    <mxGraphModel dx="1038" dy="579" grid="1" gridSize="10" guides="1" tooltips="1" connect="1" arrows="1" fold="1" page="1" pageScale="1" pageWidth="850" pageHeight="1100" background="#283618" math="0" shadow="0">
      <root>
        <mxCell id="0" />
        <mxCell id="1" parent="0" />
        <mxCell id="SWJx8y0zfs7e3VOhUoUh-12" value="" style="edgeStyle=orthogonalEdgeStyle;rounded=0;orthogonalLoop=1;jettySize=auto;html=1;labelBackgroundColor=#283618;strokeColor=#DDA15E;fontColor=#FEFAE0;" edge="1" parent="1" source="SWJx8y0zfs7e3VOhUoUh-1" target="SWJx8y0zfs7e3VOhUoUh-3">
          <mxGeometry relative="1" as="geometry" />
        </mxCell>
        <mxCell id="SWJx8y0zfs7e3VOhUoUh-1" value="Reading Players names" style="rounded=0;whiteSpace=wrap;html=1;fillColor=#BC6C25;strokeColor=#DDA15E;fontColor=#FEFAE0;" vertex="1" parent="1">
          <mxGeometry x="100" y="40" width="120" height="60" as="geometry" />
        </mxCell>
        <mxCell id="SWJx8y0zfs7e3VOhUoUh-37" style="edgeStyle=orthogonalEdgeStyle;curved=0;rounded=1;sketch=0;orthogonalLoop=1;jettySize=auto;html=1;exitX=0.5;exitY=1;exitDx=0;exitDy=0;fontColor=#FEFAE0;strokeColor=#DDA15E;fillColor=#BC6C25;" edge="1" parent="1" source="SWJx8y0zfs7e3VOhUoUh-3" target="SWJx8y0zfs7e3VOhUoUh-4">
          <mxGeometry relative="1" as="geometry" />
        </mxCell>
        <mxCell id="SWJx8y0zfs7e3VOhUoUh-3" value="Asking for Toss?" style="rhombus;whiteSpace=wrap;html=1;fillColor=#BC6C25;strokeColor=#DDA15E;fontColor=#FEFAE0;" vertex="1" parent="1">
          <mxGeometry x="120" y="160" width="80" height="80" as="geometry" />
        </mxCell>
        <mxCell id="SWJx8y0zfs7e3VOhUoUh-9" value="" style="edgeStyle=orthogonalEdgeStyle;rounded=0;orthogonalLoop=1;jettySize=auto;html=1;labelBackgroundColor=#283618;strokeColor=#DDA15E;fontColor=#FEFAE0;" edge="1" parent="1" source="SWJx8y0zfs7e3VOhUoUh-4" target="SWJx8y0zfs7e3VOhUoUh-5">
          <mxGeometry relative="1" as="geometry" />
        </mxCell>
        <mxCell id="SWJx8y0zfs7e3VOhUoUh-4" value="2nd Player will select Batting/Bowling" style="rhombus;whiteSpace=wrap;html=1;fillColor=#BC6C25;strokeColor=#DDA15E;fontColor=#FEFAE0;" vertex="1" parent="1">
          <mxGeometry x="120" y="320" width="140" height="110" as="geometry" />
        </mxCell>
        <mxCell id="SWJx8y0zfs7e3VOhUoUh-10" value="" style="edgeStyle=orthogonalEdgeStyle;rounded=0;orthogonalLoop=1;jettySize=auto;html=1;labelBackgroundColor=#283618;strokeColor=#DDA15E;fontColor=#FEFAE0;" edge="1" parent="1" source="SWJx8y0zfs7e3VOhUoUh-5" target="SWJx8y0zfs7e3VOhUoUh-6">
          <mxGeometry relative="1" as="geometry" />
        </mxCell>
        <mxCell id="SWJx8y0zfs7e3VOhUoUh-5" value="Total score of Two Players" style="rounded=0;whiteSpace=wrap;html=1;fillColor=#BC6C25;strokeColor=#DDA15E;fontColor=#FEFAE0;" vertex="1" parent="1">
          <mxGeometry x="100" y="480" width="120" height="60" as="geometry" />
        </mxCell>
        <mxCell id="SWJx8y0zfs7e3VOhUoUh-11" value="" style="edgeStyle=orthogonalEdgeStyle;rounded=0;orthogonalLoop=1;jettySize=auto;html=1;labelBackgroundColor=#283618;strokeColor=#DDA15E;fontColor=#FEFAE0;" edge="1" parent="1" source="SWJx8y0zfs7e3VOhUoUh-6" target="SWJx8y0zfs7e3VOhUoUh-7">
          <mxGeometry relative="1" as="geometry" />
        </mxCell>
        <mxCell id="SWJx8y0zfs7e3VOhUoUh-25" style="edgeStyle=orthogonalEdgeStyle;curved=0;rounded=1;sketch=0;orthogonalLoop=1;jettySize=auto;html=1;exitX=1;exitY=0.5;exitDx=0;exitDy=0;entryX=0;entryY=0.5;entryDx=0;entryDy=0;fontColor=#FEFAE0;strokeColor=#DDA15E;fillColor=#BC6C25;" edge="1" parent="1" source="SWJx8y0zfs7e3VOhUoUh-6" target="SWJx8y0zfs7e3VOhUoUh-24">
          <mxGeometry relative="1" as="geometry" />
        </mxCell>
        <mxCell id="SWJx8y0zfs7e3VOhUoUh-6" value="If P1&amp;gt;P2" style="rhombus;whiteSpace=wrap;html=1;fillColor=#BC6C25;strokeColor=#DDA15E;fontColor=#FEFAE0;" vertex="1" parent="1">
          <mxGeometry x="120" y="600" width="80" height="80" as="geometry" />
        </mxCell>
        <object label="Player 2 Winner" id="SWJx8y0zfs7e3VOhUoUh-7">
          <mxCell style="rounded=0;whiteSpace=wrap;html=1;fillColor=#BC6C25;strokeColor=#DDA15E;fontColor=#FEFAE0;" vertex="1" parent="1">
            <mxGeometry x="100" y="720" width="120" height="60" as="geometry" />
          </mxCell>
        </object>
        <mxCell id="SWJx8y0zfs7e3VOhUoUh-17" style="edgeStyle=orthogonalEdgeStyle;rounded=0;orthogonalLoop=1;jettySize=auto;html=1;entryX=0.5;entryY=0;entryDx=0;entryDy=0;labelBackgroundColor=#283618;strokeColor=#DDA15E;fontColor=#FEFAE0;" edge="1" parent="1" source="SWJx8y0zfs7e3VOhUoUh-13" target="SWJx8y0zfs7e3VOhUoUh-15">
          <mxGeometry relative="1" as="geometry" />
        </mxCell>
        <mxCell id="SWJx8y0zfs7e3VOhUoUh-18" value="" style="edgeStyle=orthogonalEdgeStyle;rounded=0;orthogonalLoop=1;jettySize=auto;html=1;labelBackgroundColor=#283618;strokeColor=#DDA15E;fontColor=#FEFAE0;" edge="1" parent="1" source="SWJx8y0zfs7e3VOhUoUh-13" target="SWJx8y0zfs7e3VOhUoUh-14">
          <mxGeometry relative="1" as="geometry" />
        </mxCell>
        <mxCell id="SWJx8y0zfs7e3VOhUoUh-13" value="Select Batting/Bowling" style="shape=parallelogram;perimeter=parallelogramPerimeter;whiteSpace=wrap;html=1;fixedSize=1;fillColor=#BC6C25;strokeColor=#DDA15E;fontColor=#FEFAE0;" vertex="1" parent="1">
          <mxGeometry x="340" y="160" width="160" height="60" as="geometry" />
        </mxCell>
        <mxCell id="SWJx8y0zfs7e3VOhUoUh-19" style="edgeStyle=orthogonalEdgeStyle;rounded=0;orthogonalLoop=1;jettySize=auto;html=1;entryX=1;entryY=0.5;entryDx=0;entryDy=0;labelBackgroundColor=#283618;strokeColor=#DDA15E;fontColor=#FEFAE0;" edge="1" parent="1" source="SWJx8y0zfs7e3VOhUoUh-14" target="SWJx8y0zfs7e3VOhUoUh-5">
          <mxGeometry relative="1" as="geometry">
            <mxPoint x="230" y="510" as="targetPoint" />
            <Array as="points">
              <mxPoint x="400" y="400" />
              <mxPoint x="410" y="400" />
              <mxPoint x="410" y="510" />
            </Array>
          </mxGeometry>
        </mxCell>
        <mxCell id="SWJx8y0zfs7e3VOhUoUh-14" value="Batting" style="shape=parallelogram;perimeter=parallelogramPerimeter;whiteSpace=wrap;html=1;fixedSize=1;fillColor=#BC6C25;strokeColor=#DDA15E;fontColor=#FEFAE0;" vertex="1" parent="1">
          <mxGeometry x="340" y="320" width="120" height="60" as="geometry" />
        </mxCell>
        <mxCell id="SWJx8y0zfs7e3VOhUoUh-23" style="edgeStyle=orthogonalEdgeStyle;curved=0;rounded=1;sketch=0;orthogonalLoop=1;jettySize=auto;html=1;fontColor=#FEFAE0;strokeColor=#DDA15E;fillColor=#BC6C25;" edge="1" parent="1" source="SWJx8y0zfs7e3VOhUoUh-15">
          <mxGeometry relative="1" as="geometry">
            <mxPoint x="220" y="540" as="targetPoint" />
            <Array as="points">
              <mxPoint x="600" y="455" />
              <mxPoint x="580" y="455" />
              <mxPoint x="580" y="530" />
            </Array>
          </mxGeometry>
        </mxCell>
        <mxCell id="SWJx8y0zfs7e3VOhUoUh-15" value="Bowling" style="rounded=1;whiteSpace=wrap;html=1;fillColor=#BC6C25;strokeColor=#DDA15E;fontColor=#FEFAE0;" vertex="1" parent="1">
          <mxGeometry x="540" y="310" width="120" height="70" as="geometry" />
        </mxCell>
        <mxCell id="SWJx8y0zfs7e3VOhUoUh-24" value="Player 1 winner&lt;br&gt;" style="rounded=1;whiteSpace=wrap;html=1;sketch=0;fontColor=#FEFAE0;strokeColor=#DDA15E;fillColor=#BC6C25;" vertex="1" parent="1">
          <mxGeometry x="290" y="610" width="120" height="60" as="geometry" />
        </mxCell>
        <mxCell id="SWJx8y0zfs7e3VOhUoUh-26" value="yes" style="text;html=1;align=center;verticalAlign=middle;resizable=0;points=[];autosize=1;strokeColor=none;fillColor=none;fontColor=#FEFAE0;" vertex="1" parent="1">
          <mxGeometry x="225" y="610" width="30" height="20" as="geometry" />
        </mxCell>
        <mxCell id="SWJx8y0zfs7e3VOhUoUh-27" value="No" style="text;html=1;align=center;verticalAlign=middle;resizable=0;points=[];autosize=1;strokeColor=none;fillColor=none;fontColor=#FEFAE0;" vertex="1" parent="1">
          <mxGeometry x="125" y="690" width="30" height="20" as="geometry" />
        </mxCell>
        <mxCell id="SWJx8y0zfs7e3VOhUoUh-28" value="No" style="text;html=1;align=center;verticalAlign=middle;resizable=0;points=[];autosize=1;strokeColor=none;fillColor=none;fontColor=#FEFAE0;" vertex="1" parent="1">
          <mxGeometry x="515" y="170" width="30" height="20" as="geometry" />
        </mxCell>
        <mxCell id="SWJx8y0zfs7e3VOhUoUh-29" value="Yes" style="text;html=1;align=center;verticalAlign=middle;resizable=0;points=[];autosize=1;strokeColor=none;fillColor=none;fontColor=#FEFAE0;" vertex="1" parent="1">
          <mxGeometry x="385" y="240" width="30" height="20" as="geometry" />
        </mxCell>
        <mxCell id="SWJx8y0zfs7e3VOhUoUh-34" value="" style="endArrow=classic;startArrow=classic;html=1;fontColor=#FEFAE0;strokeColor=#DDA15E;fillColor=#BC6C25;entryX=0;entryY=0.5;entryDx=0;entryDy=0;exitX=1;exitY=0.5;exitDx=0;exitDy=0;" edge="1" parent="1" source="SWJx8y0zfs7e3VOhUoUh-3" target="SWJx8y0zfs7e3VOhUoUh-13">
          <mxGeometry width="50" height="50" relative="1" as="geometry">
            <mxPoint x="240" y="220" as="sourcePoint" />
            <mxPoint x="290" y="170" as="targetPoint" />
            <Array as="points">
              <mxPoint x="330" y="200" />
            </Array>
          </mxGeometry>
        </mxCell>
        <mxCell id="SWJx8y0zfs7e3VOhUoUh-35" value="Win" style="text;html=1;align=center;verticalAlign=middle;resizable=0;points=[];autosize=1;strokeColor=none;fillColor=none;fontColor=#FEFAE0;" vertex="1" parent="1">
          <mxGeometry x="250" y="170" width="40" height="20" as="geometry" />
        </mxCell>
        <mxCell id="SWJx8y0zfs7e3VOhUoUh-36" value="Loose" style="text;html=1;align=center;verticalAlign=middle;resizable=0;points=[];autosize=1;strokeColor=none;fillColor=none;fontColor=#FEFAE0;" vertex="1" parent="1">
          <mxGeometry x="145" y="290" width="50" height="20" as="geometry" />
        </mxCell>
      </root>
    </mxGraphModel>
  </diagram>
</mxfile>
